<?xml version="1.0" encoding="UTF-8" standalone="no"?>
<!-- Created with Inkscape (http://www.inkscape.org/) -->

<svg
   xmlns:dc="http://purl.org/dc/elements/1.1/"
   xmlns:cc="http://creativecommons.org/ns#"
   xmlns:rdf="http://www.w3.org/1999/02/22-rdf-syntax-ns#"
   xmlns:svg="http://www.w3.org/2000/svg"
   xmlns="http://www.w3.org/2000/svg"
   xmlns:sodipodi="http://sodipodi.sourceforge.net/DTD/sodipodi-0.dtd"
   xmlns:inkscape="http://www.inkscape.org/namespaces/inkscape"
   width="16"
   height="16"
   viewBox="0 0 4.2333332 4.2333335"
   version="1.1"
   id="svg5918"
   inkscape:version="0.92.1 r15371"
   sodipodi:docname="nsiGroup.svg"
   inkscape:export-filename="C:\Users\vasya\Documents\NetBeansProjects\speed2\icon\nsiGroup.svg.png"
   inkscape:export-xdpi="96"
   inkscape:export-ydpi="96">
  <defs
     id="defs5912">
    <marker
       markerWidth="2.0989583"
       markerHeight="3.890625"
       refX="1.0494792"
       refY="1.9453125"
       orient="auto"
       id="marker6469">
      <text
         id="text6467"
         y="3.890625"
         x="-0.72395831"
         style="font-style:normal;font-weight:normal;font-size:5.33333349px;line-height:1.25;font-family:sans-serif;letter-spacing:0px;word-spacing:0px;fill:#000000;fill-opacity:1;stroke:none;stroke-width:0.99999994"
         xml:space="preserve"><tspan
           style="stroke-width:0.99999994"
           y="3.890625"
           x="-0.72395831"
           id="tspan6465"
           sodipodi:role="line">1</tspan></text>
    </marker>
  </defs>
  <sodipodi:namedview
     id="base"
     pagecolor="#ffffff"
     bordercolor="#666666"
     borderopacity="1.0"
     inkscape:pageopacity="0.0"
     inkscape:pageshadow="2"
     inkscape:zoom="22.627417"
     inkscape:cx="-1.8574825"
     inkscape:cy="12.219326"
     inkscape:document-units="mm"
     inkscape:current-layer="svg5918"
     showgrid="true"
     units="px"
     showguides="true"
     inkscape:window-width="1920"
     inkscape:window-height="1138"
     inkscape:window-x="-8"
     inkscape:window-y="-8"
     inkscape:window-maximized="1"
     inkscape:snap-nodes="true"
     inkscape:measure-start="0,0"
     inkscape:measure-end="0,16">
    <inkscape:grid
       type="xygrid"
       id="grid6463"
       originy="0"
       originx="0"
       empspacing="4"
       dotted="true"
       spacingx="0.026458333"
       spacingy="0.026458333" />
  </sodipodi:namedview>
  <metadata
     id="metadata5915">
    <rdf:RDF>
      <cc:Work
         rdf:about="">
        <dc:format>image/svg+xml</dc:format>
        <dc:type
           rdf:resource="http://purl.org/dc/dcmitype/StillImage" />
        <dc:title></dc:title>
      </cc:Work>
    </rdf:RDF>
  </metadata>
  <path
     style="font-style:normal;font-weight:normal;font-size:1.41111112px;font-family:sans-serif;letter-spacing:0px;word-spacing:0px;fill:#008080;fill-opacity:1;stroke:none;stroke-width:0.91308707"
     d="M 0.40039062 0.40039062 L 0.40039062 13.199219 L 1.5996094 13.199219 L 1.5996094 14.400391 L 2.8007812 14.400391 L 2.8007812 15.599609 L 15.599609 15.599609 L 15.599609 2.8007812 L 14.400391 2.8007812 L 14.400391 1.5996094 L 13.199219 1.5996094 L 13.199219 0.40039062 L 0.40039062 0.40039062 z M 0.75390625 0.75390625 L 12.845703 0.75390625 L 12.845703 1.5996094 L 2.3320312 1.5996094 L 2.3320312 1.0722656 L 1.96875 1.0722656 C 1.9056708 1.1472609 1.9102112 1.3426849 1.765625 1.4042969 C 1.5675876 1.5338383 1.307111 1.5337837 1.0722656 1.5429688 L 1.0722656 1.8496094 L 1.5996094 1.8496094 L 1.5996094 4.0996094 L 1.0722656 4.0996094 L 1.0722656 4.4414062 L 1.5996094 4.4414062 L 1.5996094 5.1621094 C 1.444515 5.1976945 1.2922139 5.2528464 1.1484375 5.3222656 L 1.1484375 5.6582031 C 1.1589408 5.6970869 1.1251618 5.7839308 1.1679688 5.7871094 C 1.3002975 5.6908408 1.44779 5.6239057 1.5996094 5.5742188 L 1.5996094 7.515625 C 1.4249377 7.6856541 1.2480955 7.8519942 1.0722656 8.0195312 L 1.0722656 8.484375 L 1.5996094 8.484375 L 1.5996094 9.2167969 C 1.4492499 9.2521327 1.3014772 9.2988082 1.1621094 9.3632812 L 1.1621094 9.8164062 C 1.3038504 9.7506503 1.4438598 9.6501192 1.5996094 9.6074219 L 1.5996094 12.080078 C 1.5527657 12.066674 1.501765 12.067812 1.4570312 12.050781 C 1.3190716 12.016728 1.2025106 11.907019 1.0722656 11.869141 L 1.0722656 12.322266 C 1.2394774 12.394844 1.4196523 12.437121 1.5996094 12.472656 L 1.5996094 12.845703 L 0.75390625 12.845703 L 0.75390625 0.75390625 z M 1.953125 1.953125 L 14.046875 1.953125 L 14.046875 2.8007812 L 3.5332031 2.8007812 L 3.5332031 2.2734375 L 3.1699219 2.2734375 C 3.1068416 2.3484347 3.1094332 2.5419018 2.9648438 2.6035156 C 2.7668078 2.7330552 2.508283 2.7330032 2.2734375 2.7421875 L 2.2734375 3.0488281 L 2.8007812 3.0488281 L 2.8007812 5.2988281 L 2.2734375 5.2988281 L 2.2734375 5.640625 L 2.8007812 5.640625 L 2.8007812 6.3613281 C 2.6449278 6.3971857 2.492023 6.4517801 2.3476562 6.5214844 L 2.3476562 6.859375 C 2.3581633 6.8982588 2.3243655 6.9831495 2.3671875 6.9863281 C 2.5001825 6.8895747 2.6479928 6.8208601 2.8007812 6.7714844 L 2.8007812 8.7148438 C 2.6263191 8.8850661 2.4493396 9.053097 2.2734375 9.2207031 L 2.2734375 9.6835938 L 2.8007812 9.6835938 L 2.8007812 10.414062 C 2.6496367 10.449524 2.5014432 10.497681 2.3613281 10.5625 L 2.3613281 11.015625 C 2.503068 10.949869 2.6430771 10.851291 2.7988281 10.808594 C 2.7988281 10.808594 2.8007812 10.808594 2.8007812 10.808594 L 2.8007812 13.279297 C 2.7538141 13.265843 2.7030732 13.267083 2.6582031 13.25 C 2.5202428 13.215946 2.4036834 13.108191 2.2734375 13.070312 L 2.2734375 13.521484 C 2.440679 13.594076 2.6208041 13.638154 2.8007812 13.673828 L 2.8007812 14.046875 L 1.953125 14.046875 L 1.953125 1.953125 z M 3.1542969 3.1542969 L 15.246094 3.1542969 L 15.246094 15.246094 L 3.1542969 15.246094 L 3.1542969 3.1542969 z M 4.3691406 3.4726562 C 4.3060603 3.5476496 4.3106052 3.7411205 4.1660156 3.8027344 C 3.9679797 3.9322739 3.7075014 3.9341751 3.4726562 3.9433594 L 3.4726562 4.25 L 4.25 4.25 L 4.25 6.5 L 3.4726562 6.5 L 3.4726562 6.8417969 L 5.4941406 6.8417969 C 5.494144 6.7275607 5.4941406 6.61424 5.4941406 6.5 L 4.7324219 6.5 L 4.7324219 3.4726562 L 4.3691406 3.4726562 z M 6.1679688 4.1464844 L 6.1679688 6.1679688 L 14.589844 6.1679688 L 14.589844 4.1464844 L 6.1679688 4.1464844 z M 4.4472656 7.5175781 C 4.1397633 7.5049545 3.8291764 7.5853431 3.5488281 7.7207031 L 3.5488281 8.0585938 C 3.5593352 8.0974775 3.5255373 8.1843214 3.5683594 8.1875 C 3.7953087 8.0223951 4.0598758 7.916533 4.3320312 7.9003906 C 4.5585043 7.8833072 4.8247999 7.9681787 4.9199219 8.21875 C 5.0134614 8.5007972 4.9292777 8.8221726 4.7675781 9.0527344 C 4.3973734 9.5750258 3.9248785 9.989027 3.4726562 10.419922 L 3.4726562 10.884766 L 5.4941406 10.884766 L 5.4941406 10.505859 L 4.0195312 10.505859 C 3.9858557 10.499472 3.8874684 10.517435 3.9003906 10.492188 C 4.3182359 10.095914 4.7513651 9.7110571 5.1015625 9.2382812 C 5.3050636 8.9658227 5.4075922 8.6013165 5.3554688 8.25 C 5.3140225 7.9060554 5.0477977 7.638473 4.75 7.5625 C 4.6495402 7.5357787 4.5497675 7.5217787 4.4472656 7.5175781 z M 1.5996094 7.9980469 L 1.5996094 8.1035156 C 1.5573558 8.1037421 1.4893695 8.1145204 1.5 8.09375 C 1.5332663 8.0622012 1.5662041 8.0295139 1.5996094 7.9980469 z M 6.1679688 8.1894531 L 6.1679688 10.208984 L 14.589844 10.208984 L 14.589844 8.1894531 L 6.1679688 8.1894531 z M 2.8007812 9.1972656 L 2.8007812 9.3046875 C 2.7588453 9.3044979 2.6903645 9.3140839 2.7011719 9.2929688 C 2.7344925 9.2613685 2.7673391 9.2287939 2.8007812 9.1972656 z M 4.5507812 11.5625 C 4.2139233 11.540163 3.8699683 11.61948 3.5625 11.761719 L 3.5625 12.216797 C 3.7042398 12.151041 3.8442491 12.05051 4 12.007812 C 4.2598765 11.923597 4.5593886 11.889295 4.8105469 12.021484 C 5.0572366 12.151186 5.0706306 12.539197 4.8867188 12.732422 C 4.6995414 12.925234 4.4268307 12.92873 4.1816406 12.923828 L 4.1816406 13.283203 C 4.3648759 13.283592 4.5502954 13.277036 4.7285156 13.330078 C 4.9320054 13.38131 5.0691551 13.589891 5.0722656 13.804688 C 5.094716 14.036528 5.0128181 14.290303 4.8222656 14.421875 C 4.5314726 14.609627 4.164905 14.568235 3.8574219 14.451172 C 3.7194616 14.417118 3.6029025 14.30741 3.4726562 14.269531 L 3.4726562 14.720703 C 3.8828305 14.898742 4.3486049 14.992318 4.7851562 14.871094 C 5.158566 14.773053 5.460462 14.418246 5.4882812 14.009766 C 5.5159852 13.755184 5.4574087 13.476124 5.2675781 13.302734 C 5.2169362 13.255494 5.1567954 13.21777 5.0957031 13.1875 C 5.0189182 13.12434 4.8595204 13.136659 4.8222656 13.060547 C 4.9476137 13.034468 5.0675854 12.974596 5.1660156 12.888672 C 5.3578531 12.734112 5.463926 12.473336 5.421875 12.220703 C 5.3918278 11.920594 5.1455547 11.697595 4.8828125 11.619141 C 4.773501 11.587204 4.6630669 11.569935 4.5507812 11.5625 z M 6.1679688 12.230469 L 6.1679688 14.251953 L 14.589844 14.251953 L 14.589844 12.230469 L 6.1679688 12.230469 z "
     transform="scale(0.26458333)"
     id="text6549-0-5-3" />
</svg>
