<?xml version="1.0" encoding="UTF-8" standalone="no"?>
<!-- Created with Inkscape (http://www.inkscape.org/) -->

<svg
   xmlns:dc="http://purl.org/dc/elements/1.1/"
   xmlns:cc="http://creativecommons.org/ns#"
   xmlns:rdf="http://www.w3.org/1999/02/22-rdf-syntax-ns#"
   xmlns:svg="http://www.w3.org/2000/svg"
   xmlns="http://www.w3.org/2000/svg"
   xmlns:sodipodi="http://sodipodi.sourceforge.net/DTD/sodipodi-0.dtd"
   xmlns:inkscape="http://www.inkscape.org/namespaces/inkscape"
   width="16"
   height="16"
   viewBox="0 0 4.2333332 4.2333335"
   version="1.1"
   id="svg7353"
   inkscape:version="0.92.1 r15371"
   sodipodi:docname="simpleObject.svg">
  <defs
     id="defs7347" />
  <sodipodi:namedview
     id="base"
     pagecolor="#ffffff"
     bordercolor="#666666"
     borderopacity="1.0"
     inkscape:pageopacity="0.0"
     inkscape:pageshadow="2"
     inkscape:zoom="63.356767"
     inkscape:cx="6.7325561"
     inkscape:cy="7.5881554"
     inkscape:document-units="mm"
     inkscape:current-layer="svg7353"
     showgrid="true"
     units="px"
     inkscape:measure-start="0,0"
     inkscape:measure-end="0,0"
     inkscape:window-width="1920"
     inkscape:window-height="1138"
     inkscape:window-x="-8"
     inkscape:window-y="-8"
     inkscape:window-maximized="1">
    <inkscape:grid
       type="xygrid"
       id="grid7898"
       empspacing="4"
       dotted="true"
       spacingx="0.026458333"
       spacingy="0.026458333" />
  </sodipodi:namedview>
  <metadata
     id="metadata7350">
    <rdf:RDF>
      <cc:Work
         rdf:about="">
        <dc:format>image/svg+xml</dc:format>
        <dc:type
           rdf:resource="http://purl.org/dc/dcmitype/StillImage" />
        <dc:title></dc:title>
      </cc:Work>
    </rdf:RDF>
  </metadata>
  <path
     style="fill:#008080;fill-opacity:1;fill-rule:nonzero;stroke:none;stroke-width:0;stroke-miterlimit:4;stroke-dasharray:none;stroke-opacity:1;paint-order:markers fill stroke"
     d="M 8 1.5996094 A 6.4000002 6.4000002 0 0 0 1.5996094 8 A 6.4000002 6.4000002 0 0 0 8 14.400391 A 6.4000002 6.4000002 0 0 0 14.400391 8 A 6.4000002 6.4000002 0 0 0 8 1.5996094 z M 8 2.4003906 A 5.6000001 5.6000001 0 0 1 13.599609 8 A 5.6000001 5.6000001 0 0 1 8 13.599609 A 5.6000001 5.6000001 0 0 1 2.4003906 8 A 5.6000001 5.6000001 0 0 1 8 2.4003906 z "
     transform="scale(0.26458333)"
     id="path8198" />
</svg>
